<svg width="30" height="31" viewBox="0 0 30 31" fill="none" xmlns="http://www.w3.org/2000/svg">
<path d="M25.3661 5.04356C22.5581 2.23553 18.8307 0.690796 14.8594 0.690796C10.8882 0.690796 7.1608 2.23553 4.35276 5.04356C1.54473 7.85159 0 11.579 0 15.5502C0 19.5215 1.54473 23.2489 4.35276 26.0569C7.1608 28.8649 10.8882 30.4097 14.8594 30.4097C18.8307 30.4097 22.5581 28.8649 25.3661 26.0569C28.1741 23.2489 29.7189 19.5215 29.7189 15.5502C29.7189 11.579 28.1741 7.85159 25.3661 5.04356ZM24.1716 24.8624C21.6825 27.3515 18.3742 28.7211 14.8594 28.7211C11.3447 28.7211 8.03635 27.3515 5.54727 24.8624C0.412762 19.7279 0.412762 11.3726 5.54727 6.23807C8.03635 3.74899 11.3447 2.37937 14.8594 2.37937C18.3742 2.37937 21.6825 3.74899 24.1716 6.23807C29.3061 11.3726 29.3061 19.7279 24.1716 24.8624Z" fill="white"/>
<path d="M21.4069 9.00226C21.0754 8.6708 20.5439 8.6708 20.2124 9.00226L14.859 14.3557L9.5056 9.00226C9.17414 8.6708 8.64256 8.6708 8.3111 9.00226C7.97963 9.33372 7.97963 9.86531 8.3111 10.1968L13.6645 15.5502L8.3111 20.9036C7.97963 21.235 7.97963 21.7666 8.3111 22.0981C8.4737 22.2607 8.69259 22.3482 8.90522 22.3482C9.11786 22.3482 9.33675 22.2669 9.49935 22.0981L14.8527 16.7447L20.2061 22.0981C20.3687 22.2607 20.5876 22.3482 20.8003 22.3482C21.0192 22.3482 21.2318 22.2669 21.3944 22.0981C21.7259 21.7666 21.7259 21.235 21.3944 20.9036L16.0535 15.5502L21.4069 10.1968C21.7384 9.86531 21.7384 9.33372 21.4069 9.00226Z" fill="white"/>
</svg>
