<svg width="75" height="75" viewBox="0 0 75 75" fill="none" xmlns="http://www.w3.org/2000/svg">
<circle cx="37.5" cy="37.5" r="37.5" fill="white"/>
<path d="M45.9375 16H29.0625C21.2972 16 15 22.2972 15 30.0625V46.9375C15 54.7028 21.2972 61 29.0625 61H45.9375C53.7028 61 60 54.7028 60 46.9375V30.0625C60 22.2972 53.7028 16 45.9375 16ZM55.7812 46.9375C55.7812 52.3656 51.3656 56.7812 45.9375 56.7812H29.0625C23.6344 56.7812 19.2188 52.3656 19.2188 46.9375V30.0625C19.2188 24.6344 23.6344 20.2188 29.0625 20.2188H45.9375C51.3656 20.2188 55.7812 24.6344 55.7812 30.0625V46.9375Z" fill="url(#paint0_linear)"/>
<path d="M37.5 27.25C31.2872 27.25 26.25 32.2872 26.25 38.5C26.25 44.7128 31.2872 49.75 37.5 49.75C43.7128 49.75 48.75 44.7128 48.75 38.5C48.75 32.2872 43.7128 27.25 37.5 27.25ZM37.5 45.5312C33.6244 45.5312 30.4688 42.3756 30.4688 38.5C30.4688 34.6216 33.6244 31.4688 37.5 31.4688C41.3756 31.4688 44.5312 34.6216 44.5312 38.5C44.5312 42.3756 41.3756 45.5312 37.5 45.5312Z" fill="url(#paint1_linear)"/>
<path d="M49 30C50.6569 30 52 28.6569 52 27C52 25.3431 50.6569 24 49 24C47.3431 24 46 25.3431 46 27C46 28.6569 47.3431 30 49 30Z" fill="url(#paint2_linear)"/>
<defs>
<linearGradient id="paint0_linear" x1="19.1193" y1="56.881" x2="55.8807" y2="20.119" gradientUnits="userSpaceOnUse">
<stop stop-color="#FFC107"/>
<stop offset="0.507" stop-color="#F44336"/>
<stop offset="0.99" stop-color="#9C27B0"/>
</linearGradient>
<linearGradient id="paint1_linear" x1="29.5453" y1="46.4547" x2="45.4547" y2="30.5453" gradientUnits="userSpaceOnUse">
<stop stop-color="#FFC107"/>
<stop offset="0.507" stop-color="#F44336"/>
<stop offset="0.99" stop-color="#9C27B0"/>
</linearGradient>
<linearGradient id="paint2_linear" x1="46.8789" y1="29.1217" x2="51.1211" y2="24.8789" gradientUnits="userSpaceOnUse">
<stop stop-color="#FFC107"/>
<stop offset="0.507" stop-color="#F44336"/>
<stop offset="0.99" stop-color="#9C27B0"/>
</linearGradient>
</defs>
</svg>
