<svg width="39" height="52" viewBox="0 0 39 52" fill="none" xmlns="http://www.w3.org/2000/svg">
<g filter="url(#filter0_d)">
<path d="M19.5 1C10.9534 1 4 7.86104 4 16.2942C4 26.8938 19.5152 45 19.5152 45C19.5152 45 35 26.3725 35 16.2942C35 7.86104 28.0469 1 19.5 1ZM24.1767 20.7723C22.8871 22.0445 21.1937 22.6807 19.5 22.6807C17.8066 22.6807 16.1126 22.0445 14.8236 20.7723C12.2448 18.2281 12.2448 14.088 14.8236 11.5435C16.0723 10.3108 17.7334 9.63188 19.5 9.63188C21.2666 9.63188 22.9274 10.3111 24.1767 11.5435C26.7555 14.088 26.7555 18.2281 24.1767 20.7723Z" fill="#FED74B"/>
</g>
<defs>
<filter id="filter0_d" x="0" y="0" width="39" height="52" filterUnits="userSpaceOnUse" color-interpolation-filters="sRGB">
<feFlood flood-opacity="0" result="BackgroundImageFix"/>
<feColorMatrix in="SourceAlpha" type="matrix" values="0 0 0 0 0 0 0 0 0 0 0 0 0 0 0 0 0 0 127 0"/>
<feOffset dy="3"/>
<feGaussianBlur stdDeviation="2"/>
<feColorMatrix type="matrix" values="0 0 0 0 0 0 0 0 0 0 0 0 0 0 0 0 0 0 0.25 0"/>
<feBlend mode="normal" in2="BackgroundImageFix" result="effect1_dropShadow"/>
<feBlend mode="normal" in="SourceGraphic" in2="effect1_dropShadow" result="shape"/>
</filter>
</defs>
</svg>
