<svg xmlns="http://www.w3.org/2000/svg" viewBox="0 0 512 512"><path d="M327.4 87.6c-8.4-8.4-21.9-8.3-30.2 0s-8.3 21.8-.1 30.1l37.8 37.8c4.2 4.2 4.2 10.9 0 15.1-2.1 2.1-4.8 3.1-7.5 3.1s-5.5-1-7.6-3.1l-37.7-37.7-15.1-15.1c-8.3-8.3-21.9-8.3-30.2 0s-8.3 21.8 0 30.2l52.8 52.8c4.2 4.2 4.2 10.9 0 15.1-2.1 2.1-4.8 3.1-7.5 3.1s-5.5-1-7.6-3.1L206.7 148c-8.3-8.3-21.8-8.3-30.2 0-4 4-6.3 9.4-6.3 15.1 0 5.7 2.2 11.1 6.3 15.1l67.9 67.9c4.2 4.2 4.2 10.9 0 15.1-4.2 4.2-10.9 4.2-15.1 0l-67.8-67.8-.1-.1-.2-.2-90.3-90.3c-8.3-8.3-21.9-8.3-30.2 0-4 4-6.3 9.4-6.3 15.1 0 5.7 2.2 11.1 6.3 15.1l173.5 173.5.1.1c.2.2.3.4.5.6l.3.3c.1.2.2.3.4.5.1.1.2.3.3.4.1.1.2.3.3.4.1.2.2.3.3.5.1.1.1.3.2.4.1.2.1.3.2.5s.1.3.2.5c0 .2.1.3.1.5 0 .1.1.2.1.3 0 .1 0 .2.1.3 0 .1 0 .2.1.4 0 .2.1.5.1.7V314.1c0 1-.2 2-.4 3l-.3.9v.1c-.1.3-.3.6-.4.9 0 0 0 .1-.1.1-.1.3-.3.6-.5.8v.1c-.2.3-.4.6-.6.8-1.4 1.8-3.4 3.1-5.8 3.7L119.6 346c-.3.1-.6.2-.9.2-3.6.8-7 2.7-9.9 5.6-8.3 8.3-8.3 21.8 0 30.2 2.8 2.8 6.1 4.7 9.6 5.6.2 0 .4.1.7.1L299 428.9c25.2 5.8 51.2-1.7 69.5-20l87.3-87.3c29.1-29.1 29.1-76.5 0-105.6L327.4 87.6z" fill="#fff"/><path fill="#006F99" d="M342.5 72.6c-16.6-16.6-43.8-16.6-60.4 0-6.2 6.2-10.1 13.9-11.7 21.9-15.9-7.6-35.5-4.9-48.7 8.3-6.1 6.1-10.1 13.7-11.7 21.9-15.9-7.6-35.5-4.8-48.6 8.3-5.4 5.4-9.1 11.9-11.1 19.1L86 87.6C69.4 71 42.3 71 25.7 87.6 9 104.3 9 131.3 25.7 148l160 160-71.9 17.2c-.2.1-.4.1-.6.2-7.3 1.8-14 5.6-19.6 11.1-16.6 16.6-16.6 43.7 0 60.3 5.9 5.9 13.1 9.8 20.9 11.5.1 0 .3.1.5.1l179.1 41.1c7.2 1.6 14.5 2.5 21.7 2.5 25.1 0 49.4-9.9 67.6-28.1l87.3-87.3c37.4-37.4 37.4-98.3 0-135.8L342.5 72.6zm113.1 248.9l-87.3 87.3c-18.3 18.3-44.3 25.8-69.5 20l-179.9-41.2c-.2-.1-.4-.1-.7-.1-3.5-.9-6.8-2.8-9.6-5.6-8.3-8.3-8.3-21.8 0-30.2 2.9-2.9 6.3-4.8 9.9-5.6.3-.1.6-.1.9-.2l89.8-21.5c2.4-.6 4.4-1.9 5.8-3.7.2-.3.4-.5.6-.8v-.1c.2-.3.3-.5.5-.8 0 0 0-.1.1-.1.1-.3.3-.6.4-.9v-.1l.3-.9c.3-1 .4-2 .4-3v-.1-.9-.2c0-.2-.1-.5-.1-.7 0-.1 0-.2-.1-.4 0-.1 0-.2-.1-.3 0-.1-.1-.2-.1-.3 0-.2-.1-.3-.1-.5-.1-.2-.1-.3-.2-.5s-.1-.3-.2-.5c-.1-.1-.1-.3-.2-.4-.1-.2-.2-.3-.3-.5-.1-.1-.2-.3-.3-.4-.1-.1-.2-.3-.3-.4-.1-.2-.2-.3-.4-.5l-.3-.3c-.2-.2-.3-.4-.5-.6l-.1-.1L40.8 132.9c-4-4-6.3-9.4-6.3-15.1 0-5.7 2.2-11.1 6.3-15.1 8.3-8.3 21.8-8.3 30.2 0l90.3 90.3.2.2.1.1 67.8 67.8c4.2 4.2 10.9 4.2 15.1 0 4.2-4.2 4.2-10.9 0-15.1l-67.9-67.9c-4-4-6.3-9.4-6.3-15.1 0-5.7 2.2-11.1 6.3-15.1 8.3-8.3 21.8-8.3 30.2 0l67.9 67.9c2.1 2.1 4.8 3.1 7.6 3.1 2.7 0 5.4-1 7.5-3.1 4.2-4.2 4.2-10.9 0-15.1L236.9 148c-8.3-8.3-8.3-21.8 0-30.2 8.3-8.3 21.8-8.3 30.2 0l15.1 15.1 37.7 37.7c2.1 2.1 4.8 3.1 7.6 3.1 2.7 0 5.5-1 7.5-3.1 4.2-4.2 4.2-10.9 0-15.1l-37.8-37.8c-8.3-8.3-8.2-21.8.1-30.1 8.3-8.3 21.8-8.4 30.2 0l128.2 128.2c29 29.2 29 76.6-.1 105.7z"/></svg>
