<svg width="149" height="30" viewBox="0 0 149 30" fill="none" xmlns="http://www.w3.org/2000/svg">
<path d="M135.476 5.54474C137.1 6.43916 138.6 7.51246 140.101 8.58576C142.38 10.1957 144.545 11.9186 146.406 14.0088C147.004 14.6678 147.545 15.3833 148.029 16.2119C149.169 18.2361 148.808 20.0814 146.947 21.5125C145.741 22.4634 144.364 23.1224 142.864 23.5932C140.642 24.3087 138.353 24.7229 136.017 24.9677C135.533 24.9677 135.058 25.0901 134.631 25.0901C134.508 25.0901 134.327 25.1466 134.327 24.9677C136.131 24.1298 137.755 23 138.952 21.456C141.05 18.8386 141.297 15.9765 140.158 12.9355C139.132 10.1957 137.337 7.93613 135.353 5.78953C135.296 5.60123 135.296 5.54474 135.476 5.54474Z" fill="white"/>
<path d="M148.029 23.2354C147.365 25.0242 146.045 26.154 144.487 27.1049C142.028 28.5925 139.379 29.1856 136.501 29.0726C133.976 29.0161 131.754 28.3006 129.769 26.813C128.924 26.2199 128.269 25.4385 127.67 24.6664C127.67 24.4876 127.727 24.4311 127.851 24.544C130.738 25.9186 133.738 26.6248 136.919 26.5118C140.765 26.3329 144.307 25.2031 147.612 23.2354C147.735 23.1789 147.792 23.113 147.915 23C148.086 23.0565 148.086 23.113 148.029 23.2354Z" fill="white"/>
<path d="M134.337 24.8359C134.697 25.0713 135.001 24.8359 135.362 24.8359C135.599 24.8359 135.846 24.8359 136.084 24.8359C135.486 25.0148 134.878 25.0148 134.28 25.0713C134.223 25.0713 134.099 25.1278 134.099 24.9489C134.09 24.8359 134.213 24.8359 134.337 24.8359Z" fill="white"/>
<path d="M127.841 24.5441C127.784 24.5441 127.661 24.5441 127.661 24.6665C127.537 24.61 127.423 24.5441 127.48 24.4311C127.604 24.3087 127.784 24.4217 127.841 24.5441Z" fill="white"/>
<path d="M14.1202 8.1056C14.1202 10.3087 13.4555 11.9751 12.0786 13.1049C10.6922 14.2347 8.77408 14.8279 6.19124 14.8279H4.32057V22.0397H0V1.78818H6.55207C9.01148 1.78818 10.9391 2.32483 12.2021 3.39813C13.4555 4.47143 14.1202 6.01548 14.1202 8.1056ZM4.32057 11.3161H5.76393C7.08384 11.3161 8.10938 11.0807 8.76459 10.5441C9.42929 10.0074 9.79013 9.23539 9.79013 8.28448C9.79013 7.26767 9.48626 6.56155 8.94501 6.08139C8.40375 5.60122 7.50165 5.36585 6.36216 5.36585H4.38704V11.3255H4.32057V11.3161Z" fill="white"/>
<path d="M25.7144 6.26025C26.3127 6.26025 26.797 6.31674 27.1578 6.38265L26.8539 10.3746C26.4931 10.2522 26.0753 10.2522 25.591 10.2522C24.2046 10.2522 23.1886 10.61 22.4099 11.269C21.6313 11.9845 21.2704 12.9354 21.2704 14.1876V22.0491H17.0068V6.55212H20.2544L20.8526 9.16947H21.033C21.5173 8.27505 22.1725 7.62542 23.0177 7.08877C23.8533 6.55212 24.7459 6.26025 25.7144 6.26025Z" fill="white"/>
<path d="M39.9487 22.0397L39.1036 19.959H38.9802C38.2585 20.8534 37.5368 21.4466 36.7582 21.8043C35.9795 22.1621 35.0204 22.341 33.8145 22.341C32.3141 22.341 31.1082 21.9267 30.2725 21.0888C29.4274 20.2509 28.9526 19.0081 28.9526 17.4546C28.9526 15.7882 29.5509 14.5925 30.6904 13.8205C31.8299 13.0484 33.5771 12.6248 35.913 12.5118L38.6193 12.4553V11.7398C38.6193 10.1957 37.8407 9.35778 36.2169 9.35778C34.954 9.35778 33.5106 9.71555 31.8299 10.4876L30.3865 7.62544C32.1907 6.67453 34.1753 6.19437 36.3973 6.19437C38.4959 6.19437 40.1197 6.67453 41.2022 7.56895C42.3417 8.46336 42.8829 9.82853 42.8829 11.6833V21.9926H39.9392V22.0397H39.9487ZM38.6858 14.8938L37.062 14.9502C35.7991 15.0067 34.897 15.1856 34.2988 15.6093C33.7005 16.0236 33.3967 16.6261 33.3967 17.4546C33.3967 18.6503 34.0614 19.2435 35.4382 19.2435C36.3973 19.2435 37.2424 18.9422 37.7837 18.4055C38.325 17.8689 38.6858 17.0969 38.6858 16.1459V14.8938Z" fill="white"/>
<path d="M61.7603 22.0397H57.4967V12.9825C57.4967 10.723 56.6516 9.64965 54.9708 9.64965C53.7648 9.64965 52.9292 10.0639 52.388 10.8453C51.8467 11.6268 51.6093 12.926 51.6093 14.7808V22.0491H47.3457V0.488922H51.6093V4.8857C51.6093 5.24346 51.5523 6.01549 51.4859 7.26767L51.3624 8.51986H51.5998C52.5589 7.0323 54.0592 6.26028 56.1103 6.26028C57.9715 6.26028 59.3578 6.74044 60.3169 7.74783C61.276 8.69874 61.7603 10.1298 61.7603 11.9751V22.0397Z" fill="white"/>
<path d="M76.061 22.0397L75.2159 19.959H75.0925C74.3708 20.8534 73.6491 21.4466 72.8705 21.8043C72.0918 22.1621 71.1327 22.341 69.9268 22.341C68.4264 22.341 67.2205 21.9267 66.3849 21.0888C65.5397 20.2509 65.0649 19.0081 65.0649 17.4546C65.0649 15.7882 65.6632 14.5925 66.8027 13.8205C67.9422 13.0484 69.6894 12.6248 72.0253 12.5118L74.7316 12.4553V11.7398C74.7316 10.1957 73.953 9.35778 72.3292 9.35778C71.0663 9.35778 69.6229 9.71555 67.9422 10.4876L66.4988 7.62544C68.303 6.67453 70.2876 6.19437 72.5096 6.19437C74.6082 6.19437 76.232 6.67453 77.3145 7.56895C78.454 8.46336 78.9952 9.82853 78.9952 11.6833V21.9926H76.0515V22.0397H76.061ZM74.7981 14.8938L73.1743 14.9502C71.9114 15.0067 71.0093 15.1856 70.4111 15.6093C69.8128 16.0236 69.509 16.6261 69.509 17.4546C69.509 18.6503 70.1737 19.2435 71.5505 19.2435C72.5096 19.2435 73.3547 18.9422 73.896 18.4055C74.4942 17.8689 74.7981 17.0969 74.7981 16.1459V14.8938Z" fill="white"/>
<path d="M91.0167 22.0397H86.6867V5.36585H81.1602V1.78818H96.6002V5.36585H91.0737V22.0397H91.0167Z" fill="white"/>
<path d="M108.138 6.26025C108.736 6.26025 109.22 6.31674 109.581 6.38265L109.277 10.3746C108.916 10.2522 108.499 10.2522 108.014 10.2522C106.628 10.2522 105.612 10.61 104.833 11.269C104.055 11.9845 103.694 12.9354 103.694 14.1876V22.0491H99.4302V6.55212H102.678L103.276 9.16947H103.456C103.941 8.27505 104.596 7.62542 105.441 7.08877C106.277 6.55212 107.179 6.26025 108.138 6.26025Z" fill="white"/>
<path d="M112.221 2.56019C112.221 1.18561 112.999 0.479492 114.566 0.479492C116.123 0.479492 116.912 1.19503 116.912 2.56019C116.912 3.21924 116.731 3.75589 116.313 4.10424C115.953 4.46201 115.354 4.64089 114.576 4.64089C113.009 4.65031 112.221 3.93477 112.221 2.56019ZM116.665 22.0397H112.401V6.55212H116.665V22.0397Z" fill="white"/>
<path d="M129.703 22.341C127.841 22.341 126.398 21.6819 125.372 20.3732H125.135C125.259 21.6819 125.372 22.3975 125.372 22.6328V28.8938H121.109V6.55213H124.594L125.192 8.57634H125.372C126.398 7.03229 127.832 6.25085 129.816 6.25085C131.678 6.25085 133.121 6.96639 134.147 8.39746C135.172 9.82853 135.704 11.7962 135.704 14.2912C135.704 15.9576 135.466 17.3887 134.982 18.5844C134.498 19.7801 133.776 20.731 132.884 21.3806C131.991 22.0397 130.965 22.341 129.703 22.341ZM128.44 9.64964C127.357 9.64964 126.635 9.95092 126.161 10.6006C125.686 11.2502 125.439 12.3235 125.382 13.7546V14.2347C125.382 15.9012 125.619 17.0969 126.104 17.8124C126.588 18.5279 127.367 18.8857 128.449 18.8857C130.367 18.8857 131.336 17.3416 131.336 14.1782C131.336 12.6342 131.098 11.495 130.614 10.7229C130.13 9.95092 129.465 9.64964 128.44 9.64964Z" fill="white"/>
</svg>
