<svg width="152" height="36" viewBox="0 0 152 36" fill="none" xmlns="http://www.w3.org/2000/svg">
<g filter="url(#filter0_d)">
<path d="M135.212 4.90585C136.785 5.77213 138.238 6.81166 139.691 7.85119C141.899 9.41048 143.996 11.0792 145.798 13.1035C146.378 13.7418 146.902 14.4349 147.371 15.2373C148.474 17.1978 148.125 18.9851 146.322 20.3711C145.154 21.2921 143.821 21.9304 142.368 22.3864C140.216 23.0794 137.999 23.4806 135.737 23.7177C135.268 23.7177 134.808 23.8362 134.394 23.8362C134.274 23.8362 134.1 23.8909 134.1 23.7177C135.847 22.9061 137.42 21.8119 138.579 20.3164C140.611 17.7814 140.85 15.0093 139.747 12.064C138.753 9.41048 137.015 7.222 135.093 5.14294C135.038 4.96057 135.038 4.90585 135.212 4.90585Z" fill="white"/>
<path d="M147.371 22.0398C146.727 23.7724 145.448 24.8666 143.94 25.7876C141.558 27.2284 138.992 27.8028 136.206 27.6934C133.759 27.6387 131.607 26.9457 129.685 25.5049C128.866 24.9304 128.232 24.1736 127.652 23.4259C127.652 23.2526 127.708 23.1979 127.827 23.3073C130.623 24.6386 133.529 25.3226 136.61 25.2131C140.335 25.0399 143.765 23.9456 146.966 22.0398C147.086 21.9851 147.141 21.9213 147.26 21.8119C147.426 21.8666 147.426 21.9213 147.371 22.0398Z" fill="white"/>
<path d="M134.109 23.59C134.459 23.818 134.753 23.59 135.103 23.59C135.333 23.59 135.572 23.59 135.802 23.59C135.222 23.7633 134.634 23.7633 134.054 23.818C133.999 23.818 133.879 23.8727 133.879 23.6994C133.87 23.59 133.99 23.59 134.109 23.59Z" fill="white"/>
<path d="M127.819 23.3073C127.764 23.3073 127.644 23.3073 127.644 23.4259C127.525 23.3712 127.415 23.3073 127.47 23.1979C127.589 23.0794 127.764 23.1888 127.819 23.3073Z" fill="white"/>
<path d="M17.6759 7.38615C17.6759 9.51992 17.0321 11.1339 15.6985 12.2282C14.3558 13.3224 12.498 13.8969 9.99642 13.8969H8.18462V20.8818H4V1.26752H10.3459C12.7279 1.26752 14.5949 1.78728 15.8181 2.82681C17.0321 3.86634 17.6759 5.3618 17.6759 7.38615ZM8.18462 10.4956H9.58255C10.8609 10.4956 11.8542 10.2677 12.4888 9.74789C13.1326 9.22812 13.4821 8.48039 13.4821 7.5594C13.4821 6.57459 13.1878 5.89069 12.6635 5.42563C12.1393 4.96058 11.2656 4.73261 10.162 4.73261H8.249V10.5047H8.18462V10.4956Z" fill="white"/>
<path d="M28.9043 5.59885C29.4837 5.59885 29.9528 5.65356 30.3023 5.71739L30.008 9.58371C29.6585 9.46517 29.2538 9.46517 28.7848 9.46517C27.442 9.46517 26.4579 9.81168 25.7038 10.45C24.9496 11.143 24.6001 12.064 24.6001 13.2768V20.8909H20.4707V5.88153H23.6161L24.1955 8.41652H24.3702C24.8393 7.55024 25.4739 6.92105 26.2924 6.40129C27.1017 5.88153 27.9662 5.59885 28.9043 5.59885Z" fill="white"/>
<path d="M42.6911 20.8818L41.8726 18.8665H41.753C41.054 19.7328 40.3551 20.3073 39.6009 20.6538C38.8468 21.0003 37.9179 21.1736 36.7499 21.1736C35.2967 21.1736 34.1287 20.7723 33.3194 19.9608C32.5009 19.1492 32.041 17.9455 32.041 16.441C32.041 14.827 32.6204 13.6689 33.7241 12.9212C34.8277 12.1734 36.5199 11.7631 38.7824 11.6537L41.4035 11.5989V10.9059C41.4035 9.41047 40.6494 8.59891 39.0767 8.59891C37.8535 8.59891 36.4556 8.94542 34.8277 9.69315L33.4298 6.92107C35.1772 6.00009 37.0993 5.53503 39.2514 5.53503C41.284 5.53503 42.8566 6.00009 43.9051 6.86636C45.0087 7.73263 45.533 9.05484 45.533 10.8512V20.8362H42.6819V20.8818H42.6911ZM41.4679 13.9607L39.8952 14.0154C38.672 14.0701 37.7983 14.2434 37.2189 14.6537C36.6395 15.0549 36.3452 15.6385 36.3452 16.441C36.3452 17.599 36.989 18.1735 38.3225 18.1735C39.2514 18.1735 40.07 17.8817 40.5942 17.362C41.1184 16.8422 41.4679 16.0945 41.4679 15.1735V13.9607Z" fill="white"/>
<path d="M63.8165 20.8818H59.687V12.1096C59.687 9.92113 58.8685 8.8816 57.2406 8.8816C56.0726 8.8816 55.2633 9.28282 54.7391 10.0397C54.2148 10.7965 53.9849 12.0549 53.9849 13.8513V20.8909H49.8555V0.00912476H53.9849V4.26755C53.9849 4.61406 53.9297 5.36179 53.8653 6.57457L53.7458 7.78736H53.9757C54.9046 6.3466 56.3577 5.59887 58.3443 5.59887C60.1469 5.59887 61.4896 6.06392 62.4185 7.03962C63.3474 7.96061 63.8165 9.34665 63.8165 11.1339V20.8818Z" fill="white"/>
<path d="M77.6677 20.8818L76.8491 18.8665H76.7296C76.0306 19.7328 75.3316 20.3073 74.5775 20.6538C73.8233 21.0003 72.8944 21.1736 71.7264 21.1736C70.2733 21.1736 69.1053 20.7723 68.296 19.9608C67.4774 19.1492 67.0176 17.9455 67.0176 16.441C67.0176 14.827 67.597 13.6689 68.7006 12.9212C69.8043 12.1734 71.4965 11.7631 73.7589 11.6537L76.3801 11.5989V10.9059C76.3801 9.41047 75.6259 8.59891 74.0532 8.59891C72.8301 8.59891 71.4321 8.94542 69.8043 9.69315L68.4063 6.92107C70.1537 6.00009 72.0759 5.53503 74.228 5.53503C76.2605 5.53503 77.8332 6.00009 78.8817 6.86636C79.9853 7.73263 80.5095 9.05484 80.5095 10.8512V20.8362H77.6585V20.8818H77.6677ZM76.4445 13.9607L74.8718 14.0154C73.6486 14.0701 72.7749 14.2434 72.1955 14.6537C71.6161 15.0549 71.3218 15.6385 71.3218 16.441C71.3218 17.599 71.9655 18.1735 73.2991 18.1735C74.228 18.1735 75.0465 17.8817 75.5707 17.362C76.1502 16.8422 76.4445 16.0945 76.4445 15.1735V13.9607Z" fill="white"/>
<path d="M92.1519 20.8818H87.9581V4.73261H82.6055V1.26752H97.5597V4.73261H92.2071V20.8818H92.1519Z" fill="white"/>
<path d="M108.734 5.59885C109.314 5.59885 109.783 5.65356 110.132 5.71739L109.838 9.58371C109.489 9.46517 109.084 9.46517 108.615 9.46517C107.272 9.46517 106.288 9.81168 105.534 10.45C104.78 11.143 104.43 12.064 104.43 13.2768V20.8909H100.301V5.88153H103.446L104.026 8.41652H104.2C104.669 7.55024 105.304 6.92105 106.122 6.40129C106.932 5.88153 107.806 5.59885 108.734 5.59885Z" fill="white"/>
<path d="M112.689 2.01523C112.689 0.683901 113.444 0 114.961 0C116.469 0 117.233 0.693019 117.233 2.01523C117.233 2.65353 117.058 3.1733 116.653 3.51069C116.304 3.8572 115.724 4.03045 114.97 4.03045C113.453 4.03957 112.689 3.34655 112.689 2.01523ZM116.994 20.8818H112.864V5.88154H116.994V20.8818Z" fill="white"/>
<path d="M129.622 21.1736C127.819 21.1736 126.422 20.5353 125.428 19.2678H125.198C125.318 20.5353 125.428 21.2283 125.428 21.4562V27.5202H121.299V5.88155H124.674L125.254 7.84206H125.428C126.422 6.3466 127.81 5.58975 129.732 5.58975C131.535 5.58975 132.933 6.28277 133.926 7.66881C134.92 9.05485 135.435 10.9606 135.435 13.3771C135.435 14.9911 135.205 16.3771 134.736 17.5352C134.267 18.6933 133.568 19.6143 132.703 20.2435C131.839 20.8818 130.845 21.1736 129.622 21.1736ZM128.399 8.88159C127.35 8.88159 126.651 9.17339 126.192 9.80258C125.732 10.4318 125.493 11.4713 125.437 12.8573V13.3224C125.437 14.9364 125.667 16.0945 126.136 16.7875C126.605 17.4805 127.36 17.827 128.408 17.827C130.266 17.827 131.204 16.3315 131.204 13.2677C131.204 11.7722 130.974 10.6689 130.505 9.92112C130.036 9.17339 129.392 8.88159 128.399 8.88159Z" fill="white"/>
</g>
<defs>
<filter id="filter0_d" x="0" y="0" width="151.999" height="35.7064" filterUnits="userSpaceOnUse" color-interpolation-filters="sRGB">
<feFlood flood-opacity="0" result="BackgroundImageFix"/>
<feColorMatrix in="SourceAlpha" type="matrix" values="0 0 0 0 0 0 0 0 0 0 0 0 0 0 0 0 0 0 127 0"/>
<feOffset dy="4"/>
<feGaussianBlur stdDeviation="2"/>
<feColorMatrix type="matrix" values="0 0 0 0 0 0 0 0 0 0 0 0 0 0 0 0 0 0 0.25 0"/>
<feBlend mode="normal" in2="BackgroundImageFix" result="effect1_dropShadow"/>
<feBlend mode="normal" in="SourceGraphic" in2="effect1_dropShadow" result="shape"/>
</filter>
</defs>
</svg>
